<svg width="35" height="47" viewBox="0 0 35 47" fill="none" xmlns="http://www.w3.org/2000/svg">
<path fill-rule="evenodd" clip-rule="evenodd" d="M34.67 0V31.1405L17.3301 46.0606L0 31.1405V0H34.67Z" fill="black"/>
<path d="M16.876 4.11475C16.6465 4.11477 16.4436 4.25878 16.3717 4.4725L16.1716 5.06659C15.4741 7.1405 15.1008 9.28111 15.0605 11.4351C14.8987 11.4884 14.7827 11.6382 14.7827 11.8148V15.0152L13.9098 17.2417C13.892 17.2876 13.8822 17.3359 13.8822 17.3851V30.3455C13.8822 30.5666 14.0649 30.7459 14.2903 30.7459H14.3601V31.2495H14.2903C14.0649 31.2495 13.8822 31.4288 13.8822 31.6499C13.8822 31.871 14.0649 32.0503 14.2903 32.0503H19.4603C19.573 32.0503 19.6748 32.005 19.7486 31.9328C19.8225 31.8603 19.8685 31.7605 19.8684 31.6499C19.8684 31.4288 19.6857 31.2495 19.4603 31.2496H19.3905V30.7459H19.4603C19.5685 30.7459 19.6721 30.7035 19.7486 30.6283C19.8251 30.5533 19.8685 30.4517 19.8684 30.3455V17.3851C19.8684 17.336 19.8597 17.2877 19.8407 17.2417L18.9679 15.0152V11.8148C18.9679 11.7086 18.926 11.6057 18.8494 11.5306C18.8042 11.4865 18.7494 11.4546 18.6901 11.4351C18.6498 9.28103 18.2765 7.14056 17.579 5.0666L17.3789 4.4725C17.3071 4.25872 17.1055 4.11467 16.876 4.11475Z" fill="white"/>
</svg>
